# xmcd
#
# Track frame offsets:
#	150
#	13652
#	26717
#	38289
#	56049
#	68691
#	81242
#	105715
#	119509
#	130406
#	145160
#	158933
#	171272
#	184639
#	194073
#	219341
#	229509
#	241742
#	253504
#	266044
#	287306
#
# Disc length: 4048 seconds
#
# Revision: 0
# Processed by: cddbd v1.5.2PL0 Copyright (c) Steve Scherf et al.
# Submitted via: dBpowerAMP V4.0
#
DISCID=260fce15
DTITLE=Various Artist - SuperFunk Volume 5
DYEAR=1900
DGENRE=Funk
TTITLE0=Smithsonian - Just Sitting
TTITLE1=87th Off Broadway - Can't Get Enough
TTITLE2=The Diplomats - She's The One
TTITLE3=The Eternal Flames - Hi Off Life
TTITLE4=Miles Grayson - Home Brew
TTITLE5=The Uniques - Give Me Another Chance
TTITLE6=The Phillips Brothers - I Got Hurt Pt 1
TTITLE7=The Phillips Brothers - I Got Hurt Pt 2
TTITLE8=Lee Bernard - Turn Around And Go
TTITLE9=Dyke and The Blazers - Let A Woman Be A Woman - Let A Man Be A Man
TTITLE10=Alvin Cash - Twine Time
TTITLE11=The Explosions - Face To Face
TTITLE12=Jackie Wilson - Shake A Leg
TTITLE13=Hebrew Rogers - Can't Buy Soul
TTITLE14=Smokey Wilson - Low Rider (Deuce and A Quarter)
TTITLE15=Big Daddy Green - Who Done It ? Who Drained The Pool
TTITLE16=Mello Matics - Mother Popcorn
TTITLE17=The Phillips Brothers - Little Boy Blue
TTITLE18=Jeanette Jones - You'd Be Good For Me
TTITLE19=Lorenzo Holden - Hold On
TTITLE20=La May and Company - Free The Soul Man
EXTD=
EXTT0=
EXTT1=
EXTT2=
EXTT3=
EXTT4=
EXTT5=
EXTT6=
EXTT7=
EXTT8=
EXTT9=
EXTT10=
EXTT11=
EXTT12=
EXTT13=
EXTT14=
EXTT15=
EXTT16=
EXTT17=
EXTT18=
EXTT19=
EXTT20=
PLAYORDER=
